# xmcd
#
# Track frame offsets:
#	150
#	4368
#	21459
#	33758
#	51839
#	64971
#	85598
#	102488
#	116901
#	130426
#	142765
#	155776
#	169032
#	183215
#	201421
#	214556
#	230518
#	254394
#	274523
#
# Disc length: 3856 seconds
#
# Revision: 1
# Processed by: cddbd v1.5.2PL0 Copyright (c) Steve Scherf et al.
# Submitted via: EasyCDDAExtractor 2010.4.0.0
#
DISCID=110f0e13
DTITLE=Various Artist - Gala Repete
DYEAR=1995
DGENRE=Pop
TTITLE0=Ivan Krajíček - Re-pe-te
TTITLE1=Peter Vašek - Otvárajte kasíno
TTITLE2=Marcela Molnárová - Až bude pokosená tráva
TTITLE3=Karol Konárik - Júlia si čarovná
TTITLE4=Helena Vrtichová - Diridonda
TTITLE5=Michal Dočolomanský - Ľúbim ťa
TTITLE6=Marcela Laiferová - Pod bielou alejou
TTITLE7=Lýdia Volejníčková - Keď si sám
TTITLE8=Peter Stašák - Čardáš dvoch srdc
TTITLE9=Zora Kolínska - Keď bola v móde polka
TTITLE10=Eugen Šváb - Pieseň o decembri
TTITLE11=Oľga Szabová - Mendocíno
TTITLE12=Dušan Grúň - Buterfly
TTITLE13=Karol Konárik - Rozchod
TTITLE14=Lýdia Volejníčková a Michal Dočolomanský - Smoliar
TTITLE15=Robert Kazík - Vzdialená
TTITLE16=Ivan Krajíček - Mama
TTITLE17=Marcela Laiferová a Ivan Krajíček - Slovenské tango
TTITLE18=Otto Weiter - Nalej mi vína, Malvína
EXTD=YEAR: 1994
EXTT0=
EXTT1=
EXTT2=
EXTT3=
EXTT4=
EXTT5=
EXTT6=
EXTT7=
EXTT8=
EXTT9=
EXTT10=
EXTT11=
EXTT12=
EXTT13=
EXTT14=
EXTT15=
EXTT16=
EXTT17=
EXTT18=
PLAYORDER=
